<svg xmlns="http://www.w3.org/2000/svg" version="1.1" xmlns:xlink="http://www.w3.org/1999/xlink" xmlns:svgjs="http://svgjs.dev/svgjs" width="256" height="256"><svg xmlns="http://www.w3.org/2000/svg" width="256" height="256" viewBox="0 0 100 100"><rect width="100" height="100" rx="20" fill="#15aabf"></rect><path fill="#fff" d="M65.64 41.48L63.72 60.92Q64.60 61.56 65.76 61.96Q66.92 62.36 68.44 62.36L68.44 62.36Q71.08 62.36 73.04 61.16Q75 59.96 76.32 57.76Q77.64 55.56 78.28 52.52Q78.92 49.48 78.92 45.88L78.92 45.88Q78.92 40.20 77 35.48Q75.08 30.76 71.52 27.40Q67.96 24.04 62.92 22.16Q57.88 20.28 51.64 20.28L51.64 20.28Q44.68 20.28 39.00 22.48Q33.32 24.68 29.36 28.72Q25.40 32.76 23.24 38.40Q21.08 44.04 21.08 50.92L21.08 50.92Q21.08 57.48 23.12 62.80Q25.16 68.12 28.84 71.88Q32.52 75.64 37.72 77.68Q42.92 79.72 49.24 79.72L49.24 79.72Q52.28 79.72 54.60 79.36Q56.92 79 58.52 78.52L58.52 78.52Q59.56 79.56 59.56 81L59.56 81Q59.56 82.84 57.20 83.88Q54.84 84.92 48.76 84.92L48.76 84.92Q41.16 84.92 34.88 82.52Q28.60 80.12 24.12 75.72Q19.64 71.32 17.20 65.04Q14.76 58.76 14.76 50.92L14.76 50.92Q14.76 42.84 17.36 36.20Q19.96 29.56 24.76 24.88Q29.56 20.20 36.36 17.64Q43.16 15.08 51.56 15.08L51.56 15.08Q59.40 15.08 65.64 17.28Q71.88 19.48 76.24 23.56Q80.60 27.64 82.92 33.32Q85.24 39.00 85.24 45.96L85.24 45.96Q85.24 56.36 81 62.00Q76.76 67.64 68.44 67.64L68.44 67.64Q65.96 67.64 63.52 66.84Q61.08 66.04 59.24 64.52L59.24 64.52Q57.56 65.72 55.24 66.48Q52.92 67.24 49.72 67.24L49.72 67.24Q46.20 67.24 43.36 66.16Q40.52 65.08 38.48 63.04Q36.44 61.00 35.32 58.00Q34.20 55.00 34.20 51.24L34.20 51.24Q34.20 46.92 35.52 43.52Q36.84 40.12 39.24 37.76Q41.64 35.40 45.04 34.16Q48.44 32.92 52.60 32.92L52.60 32.92Q55.40 32.92 58.04 33.56Q60.68 34.20 62.52 35.16L62.52 35.16Q65.80 36.84 65.80 39.08L65.80 39.08Q65.80 39.64 65.76 40.28Q65.72 40.92 65.64 41.48L65.64 41.48ZM40.76 51.24L40.76 51.24Q40.76 56.44 43.36 59.20Q45.96 61.96 50.60 61.96L50.60 61.96Q54.44 61.96 57.48 59.56L57.48 59.56L59.48 39.72Q58.20 39.08 56.36 38.64Q54.52 38.20 52.20 38.20L52.20 38.20Q47.08 38.20 43.92 41.60Q40.76 45.00 40.76 51.24Z"></path></svg><style>@media (prefers-color-scheme: light) { :root { filter: none; } }
@media (prefers-color-scheme: dark) { :root { filter: none; } }
</style></svg>